<svg height="800" width="800" xmlns="http://www.w3.org/2000/svg" viewBox="0 0 512 512"><path style="fill:#37c4b3" d="M317.968 237.314a12.56 12.56 0 0 1-9.719-4.623L193.123 92a12.82 12.82 0 0 1-.805-15.111l41.087-62.902a12.58 12.58 0 0 1 10.523-5.719h148.081c4.236 0 8.19 2.149 10.526 5.719l41.083 62.902A12.82 12.82 0 0 1 442.813 92L327.687 232.69a12.56 12.56 0 0 1-9.719 4.624" transform="matrix(1.88383 0 0 1.82185 -342.996 32.27)"/><path style="fill:#53e7d3" d="M218.484 1.406a12.6 12.6 0 0 0-4.795 4.312L172.6 68.622a12.8 12.8 0 0 0-2.049 7.856h96.97zm110.495 75.07h96.973a12.8 12.8 0 0 0-2.05-7.856L382.814 5.718a12.6 12.6 0 0 0-4.795-4.312z" transform="matrix(1.88383 0 0 1.82185 -305.853 47.333)"/><path style="fill:#53e7d3" d="m317.968 237.34 50.027-152.596h-99.744z" transform="matrix(1.88383 0 0 1.82185 -342.996 32.27)"/><path style="fill:#b9f5ed" d="m317.895 8.268-49.954 76.476h100.054L318.04 8.268z" transform="matrix(1.88383 0 0 1.82185 -342.996 32.27)"/><path style="opacity:.1" d="M226.694 92a12.82 12.82 0 0 1-.807-15.111l41.089-62.902a12.58 12.58 0 0 1 10.523-5.719h-33.572a12.58 12.58 0 0 0-10.523 5.719l-41.087 62.902A12.82 12.82 0 0 0 193.122 92l115.127 140.691C310.643 235.619 226.694 92 226.694 92" transform="matrix(1.88383 0 0 1.82185 -342.996 32.27)"/></svg>